<?xml version="1.0" encoding="UTF-8"?>
<svg version="1.1" xmlns="http://www.w3.org/2000/svg" width="128" height="128">
<path d="M0 0 C11.98793064 11.29116567 18.165073 25.96713644 18.68359375 42.34375 C18.47086131 59.38361829 12.47805969 72.90205975 0.43359375 84.78125 C-0.20449219 85.42964844 -0.84257813 86.07804687 -1.5 86.74609375 C-11.92338993 96.64939769 -25.64398246 100.78486384 -39.81640625 101.09375 C-57.38761977 100.5359337 -72.16679909 93.022723 -84.2734375 80.484375 C-94.65126772 68.25020376 -98.58629005 52.52454727 -97.56640625 36.78125 C-96.415963 28.58320955 -94.72340133 17.93824508 -88.56640625 11.78125 C-86.22695889 12.06855055 -83.89249195 12.40061779 -81.56640625 12.78125 C-81.75203125 13.8125 -81.93765625 14.84375 -82.12890625 15.90625 C-81.96734228 19.6877153 -81.96734228 19.6877153 -79.984375 21.40625 C-77.58542088 23.0660669 -75.15956027 24.44403952 -72.56640625 25.78125 C-71.66148438 26.24789062 -70.7565625 26.71453125 -69.82421875 27.1953125 C-62.78662858 30.45663477 -56.25784151 31.61364202 -48.62109375 32.32421875 C-45.56640625 32.78125 -45.56640625 32.78125 -43.56640625 34.78125 C-43.31640625 37.28125 -43.31640625 37.28125 -43.56640625 39.78125 C-46.04092421 42.25576796 -46.83077821 42.10508217 -50.25390625 42.15625 C-63.72588865 41.839676 -74.46827064 36.82659957 -85.56640625 29.78125 C-87.38972725 35.93495839 -87.80260215 41.37771678 -87.56640625 47.78125 C-86.19355469 47.96300781 -86.19355469 47.96300781 -84.79296875 48.1484375 C-83.60445312 48.31601563 -82.4159375 48.48359375 -81.19140625 48.65625 C-80.00804688 48.81867188 -78.8246875 48.98109375 -77.60546875 49.1484375 C-74.56640625 49.78125 -74.56640625 49.78125 -72.56640625 51.78125 C-72.25390625 54.28125 -72.25390625 54.28125 -72.56640625 56.78125 C-76.01855478 59.08268236 -76.80119949 58.91958854 -80.75390625 58.40625 C-81.65496094 58.29539062 -82.55601563 58.18453125 -83.484375 58.0703125 C-84.17144531 57.97492188 -84.85851562 57.87953125 -85.56640625 57.78125 C-79.53734009 71.54170687 -71.16515562 81.84677421 -57.078125 87.83984375 C-43.62190948 92.5664808 -30.40489758 91.52842711 -17.44140625 85.65625 C-10.82143313 82.13202483 -3.52662605 76.87612464 -0.56640625 69.78125 C-1.51257813 70.07 -2.45875 70.35875 -3.43359375 70.65625 C-18.48018514 74.98664783 -32.84551336 75.84279413 -47.56640625 69.78125 C-48.28876465 69.49685059 -49.01112305 69.21245117 -49.75537109 68.91943359 C-52.12678107 67.97352582 -54.47238807 66.98047913 -56.81640625 65.96875 C-57.56865479 65.66195312 -58.32090332 65.35515625 -59.09594727 65.0390625 C-61.15427986 64.09832809 -62.84236988 63.24896441 -64.56640625 61.78125 C-65.67578125 58.14453125 -65.67578125 58.14453125 -65.56640625 54.78125 C-64.90640625 54.12125 -64.24640625 53.46125 -63.56640625 52.78125 C-57.76111046 53.02071845 -53.55313621 55.01999289 -48.56640625 57.71875 C-35.80755641 64.55035638 -22.42964539 65.91410366 -8.46484375 61.8203125 C1.3714807 58.64054262 1.3714807 58.64054262 8.18359375 51.53125 C8.26609375 50.29375 8.34859375 49.05625 8.43359375 47.78125 C8.5109375 46.66943359 8.5109375 46.66943359 8.58984375 45.53515625 C8.84782995 38.81676565 7.69930738 32.35844049 6.43359375 25.78125 C-4.52017049 27.66137371 -13.96074799 29.80226796 -23.5859375 35.48828125 C-27.09288184 37.00964243 -28.92674803 36.75508979 -32.56640625 35.78125 C-33.06140625 32.81125 -33.06140625 32.81125 -33.56640625 29.78125 C-22.62586049 22.55636129 -12.41203471 18.91352031 0.43359375 16.78125 C-6.57021857 5.77525922 -16.85349413 -1.69161602 -29.69140625 -4.59375 C-40.412417 -6.2497023 -50.56430498 -5.06889406 -60.50390625 -0.53125 C-63.52949747 0.76543195 -65.3271603 1.24399942 -68.56640625 0.78125 C-70.56640625 -1.21875 -70.56640625 -1.21875 -71.06640625 -3.59375 C-70.56640625 -6.21875 -70.56640625 -6.21875 -68.31640625 -8.28125 C-46.36726245 -21.10664044 -18.60685885 -16.08629501 0 0 Z " fill="#A455CC" transform="translate(103.56640625,21.21875)"/>
</svg>
